PathFileType	4	(X/Y/Z)	Kaydara	
DataRate	CameraRate	NumFrames	NumMarkers	Units	OrigDataRate	OrigDataStartFrame	OrigNumFrames	
60.00	60.00	4	74	mm	60.00	2711	161	
Frame#	Time	Z_lasi			Z_rasi			Z_rpsi			Z_lpsi			Z_fneck			Z_bneck			Z_fhead			Z_rhead			Z_lhead			Z_rshld			Z_relbtop			Z_relbext			Z_relblow			Z_rwrext			Z_rwrtop			Z_rwrlow			Z_lshld			Z_lelbext			Z_lelblow			Z_lelbtop			Z_lwrext			Z_lwrtop			Z_rtopleg			Z_ltopleg			Z_rkneefr			Z_rkneebk			Z_rkneeis			Z_lkneefr			Z_lknssbk			Z_lkneeis			Z_rankfr			Z_rankis			Z_rankbk			Z_lankfr			Z_lankbk			Z_lankis			A_lasi			A_rasi			A_rpsi			A_lpsi			A_fneck			A_bneck			A_fhead			A_rhead			A_lhead			A_rshld			A_relbtop			A_relbext			A_relblow			A_rwrext			A_rwrtop			A_rwrlow			A_lshld			A_lelbext			A_lelblow			A_lelbtop			A_lwrext			A_lwrtop			A_lwrlow			A_rtopleg			A_ltopleg			A_rkneefr			A_rkneebk			A_rkneeis			A_lkneefr			A_lknssbk			A_lkneeis			A_rankfr			A_rankis			A_rankbk			A_lankfr			A_lankbk			A_lankis			Z_lwrlow			
		X1	Y1	Z1	X2	Y2	Z2	X3	Y3	Z3	X4	Y4	Z4	X5	Y5	Z5	X6	Y6	Z6	X7	Y7	Z7	X8	Y8	Z8	X9	Y9	Z9	X10	Y10	Z10	X11	Y11	Z11	X12	Y12	Z12	X13	Y13	Z13	X14	Y14	Z14	X15	Y15	Z15	X16	Y16	Z16	X17	Y17	Z17	X18	Y18	Z18	X19	Y19	Z19	X20	Y20	Z20	X21	Y21	Z21	X22	Y22	Z22	X23	Y23	Z23	X24	Y24	Z24	X25	Y25	Z25	X26	Y26	Z26	X27	Y27	Z27	X28	Y28	Z28	X29	Y29	Z29	X30	Y30	Z30	X31	Y31	Z31	X32	Y32	Z32	X33	Y33	Z33	X34	Y34	Z34	X35	Y35	Z35	X36	Y36	Z36	X37	Y37	Z37	X38	Y38	Z38	X39	Y39	Z39	X40	Y40	Z40	X41	Y41	Z41	X42	Y42	Z42	X43	Y43	Z43	X44	Y44	Z44	X45	Y45	Z45	X46	Y46	Z46	X47	Y47	Z47	X48	Y48	Z48	X49	Y49	Z49	X50	Y50	Z50	X51	Y51	Z51	X52	Y52	Z52	X53	Y53	Z53	X54	Y54	Z54	X55	Y55	Z55	X56	Y56	Z56	X57	Y57	Z57	X58	Y58	Z58	X59	Y59	Z59	X60	Y60	Z60	X61	Y61	Z61	X62	Y62	Z62	X63	Y63	Z63	X64	Y64	Z64	X65	Y65	Z65	X66	Y66	Z66	X67	Y67	Z67	X68	Y68	Z68	X69	Y69	Z69	X70	Y70	Z70	X71	Y71	Z71	X72	Y72	Z72	X73	Y73	Z73	X74	Y74	Z74	

101	45.167	-758.99277	1073.34534	-428.11134	-778.53348	1073.21571	-221.41680	-964.25758	1129.82094	-202.71450	-945.45502	1126.84105	-447.14806	-734.62318	1423.15598	-299.75742	-824.50531	1508.43674	-326.09650	-657.14943	1602.24594	-180.52101	-813.86551	1627.04346	-235.13435	-709.23332	1631.82434	-340.14431	-800.94635	1451.61514	-138.87184	-577.67120	1298.65570	-57.08602	-591.66748	1230.51186	-17.05881	-587.61818	1204.38477	-76.05045	-364.93782	1229.48891	-27.23059	-366.05759	1276.12770	-35.46098	-367.97501	1270.49706	-78.28460	-786.47957	1445.77499	-505.16811	-836.93504	1131.23779	-628.62572	-828.92159	1113.20816	-557.00977	-762.89261	1140.45876	-612.83428	-681.73447	909.16031	-564.98180	-682.32613	901.40373	-611.42937	-983.32596	926.04568	-159.53766	-834.84657	901.06003	-500.28217	-895.40291	431.46935	-118.92525	-983.88977	454.78645	-123.25430	-904.55856	425.87391	-216.65777	-806.16425	434.60075	-467.29862	-904.49966	461.71230	-507.60571	-863.36700	419.93210	-394.87892	-919.46396	195.51281	-82.75228	-901.17271	182.22132	-144.61180	-981.38542	179.19147	-121.73381	-847.68112	169.72832	-503.86398	-927.91245	172.87088	-490.93349	-872.32445	174.95581	-434.77261	209.71750	1037.10831	301.23470	230.85260	1050.28893	146.05161	391.77658	1056.62987	151.39509	331.98582	1051.14891	326.18343	248.32710	1380.83130	243.57462	387.68269	1415.20660	247.29549	227.13322	1601.86676	208.20581	387.76436	1554.00970	167.64862	344.54391	1565.49423	324.93217	299.69412	1389.95239	87.57238	65.58366	1304.19708	6.85641	74.12230	1241.04164	-0.34993	48.63475	1273.60435	56.02026	-173.74487	1244.15939	-59.85033	-174.59616	1231.02066	-16.93743	-172.60216	1285.66559	-54.89194	277.61551	1362.89673	401.49651	274.90398	1060.94986	451.29189	319.28116	1049.13101	432.28420	257.17209	1058.53233	399.67560	191.29070	842.15256	435.19478	152.25494	862.24380	418.43391	200.97572	848.64304	392.23072	364.15947	882.17094	64.35068	246.62901	884.89059	386.66584	373.88588	416.76838	209.70518	423.15296	457.30938	120.02245	326.14342	407.23488	110.66800	350.59025	455.44228	234.41534	322.98641	475.44594	351.78780	252.82156	423.79601	263.01102	386.61404	173.19553	101.23617	389.72588	165.65166	172.49233	462.56065	164.18102	129.42192	306.11654	168.64485	298.32447	355.11353	170.97866	348.83667	377.07672	176.68674	266.45422	-727.72873	890.74814	-613.19855 
102	45.183	-762.90642	1072.79572	-424.49860	-776.57730	1070.17960	-217.12233	-961.15562	1128.24936	-192.16619	-949.59709	1127.72606	-436.85787	-731.71196	1420.57999	-290.93424	-821.70517	1507.08527	-314.69542	-652.41837	1597.17834	-168.88380	-808.84064	1624.12125	-223.44330	-704.11400	1629.12689	-328.13438	-792.94266	1447.87094	-129.55208	-564.16889	1293.42834	-58.22400	-580.53780	1225.39879	-19.10608	-577.92580	1200.00343	-78.66279	-353.89519	1214.92546	-29.17997	-353.25989	1261.62781	-34.79045	-354.97746	1258.86681	-77.87664	-790.27397	1446.83670	-495.39474	-848.00667	1134.59450	-622.09328	-837.87987	1115.84747	-550.79060	-773.63701	1143.42186	-608.35514	-690.58434	912.10251	-565.15781	-693.00468	904.68575	-611.39996	-980.91545	924.69131	-150.89342	-841.17188	901.84837	-495.22610	-895.52094	428.90594	-116.67870	-983.68912	452.81990	-120.01174	-905.37903	424.74148	-214.39898	-809.71977	435.42679	-466.34457	-909.14093	461.99078	-504.17549	-865.25154	419.63268	-392.72572	-919.99275	192.93066	-82.52365	-903.35609	179.80650	-143.56487	-982.01920	177.20722	-121.49764	-849.13078	170.41885	-503.74077	-929.55688	172.72387	-489.21810	-872.46681	174.99887	-434.25591	210.27683	1036.92818	302.11454	231.01265	1050.00633	146.87068	391.93874	1057.46094	151.48368	332.83783	1051.60561	326.41216	246.15696	1380.52567	244.16334	384.77924	1414.79568	246.76790	224.71140	1601.96182	208.43472	385.05222	1553.45627	167.56100	342.34032	1565.36774	324.88708	295.64793	1390.07202	87.68195	61.69329	1301.10611	8.53123	71.81987	1237.84714	2.17767	44.80768	1270.40329	57.64629	-172.63313	1233.32123	-66.05182	-171.49078	1218.87779	-23.96374	-174.45263	1274.46205	-59.47852	276.35241	1362.90436	401.84063	275.70438	1060.97511	451.64143	319.76931	1049.26170	432.86190	257.97134	1058.47313	400.05116	192.27173	842.09152	435.66631	153.43599	862.16934	418.99498	202.18420	848.43216	393.07182	365.18284	882.46773	64.87549	247.29895	885.10201	386.32084	374.40655	416.62209	209.83824	423.80749	457.24190	120.32741	326.73210	407.30362	110.90992	349.54605	455.54916	233.35947	322.98370	475.15427	351.43600	252.67658	423.80268	262.70624	386.83075	173.22308	101.33153	390.05600	165.53860	172.54038	462.77157	164.04276	129.49533	306.05829	168.52221	298.12752	354.92298	171.00092	348.71044	377.07726	176.63759	266.37144	-738.25630	893.72955	-611.27316 
103	45.200	-766.62437	1072.42912	-420.00923	-774.80400	1067.69974	-212.15893	-958.24089	1127.05170	-181.71099	-953.47275	1128.48305	-426.36890	-729.06509	1418.25668	-281.89137	-818.85109	1506.01624	-303.28920	-647.58583	1591.53580	-157.00857	-803.65623	1621.45325	-210.92363	-698.82538	1626.38245	-315.70494	-786.19041	1444.34128	-120.17185	-555.25490	1287.21481	-57.76904	-573.13477	1219.30107	-19.23900	-572.00855	1194.31740	-78.87467	-347.37743	1201.01784	-31.21399	-345.11726	1247.79968	-34.74304	-347.46845	1247.84729	-77.96793	-793.75450	1447.87506	-485.30689	-859.12720	1138.15727	-614.84600	-847.03468	1118.48740	-544.14333	-784.35555	1146.44501	-603.25741	-700.32768	914.83856	-564.90234	-704.52583	907.84378	-611.07254	-978.35846	923.52585	-141.41415	-847.24358	902.48489	-489.42425	-896.21284	427.14016	-113.83291	-984.26292	451.16310	-116.69431	-906.43570	423.91239	-211.85961	-813.20038	436.35372	-464.77684	-913.67325	462.33250	-500.26108	-867.28539	419.41986	-389.95499	-919.98352	191.30106	-80.58787	-902.51320	178.63371	-142.26989	-981.76559	175.51968	-119.83179	-850.77431	171.33711	-503.29655	-930.56458	172.91067	-487.08046	-873.01094	175.35374	-432.95624	210.82239	1036.72737	303.17997	231.12265	1049.64935	147.87956	392.01283	1058.16689	151.60251	333.40874	1052.19437	326.81725	244.33622	1380.44525	244.65717	382.59495	1414.97772	246.46448	222.15860	1601.94122	208.79200	382.28157	1553.13599	167.29151	340.18921	1565.36758	324.82037	293.02073	1390.13351	88.00579	59.41254	1296.54877	9.81784	71.90917	1233.03192	5.16514	42.10205	1265.96588	59.04277	-166.70807	1220.04288	-74.33268	-165.67547	1202.50908	-33.35263	-171.91965	1260.17204	-65.98968	275.15837	1362.74780	402.41947	276.53517	1060.74127	452.11464	320.55969	1049.38545	433.08994	259.03852	1058.13553	400.37243	193.46434	842.04773	436.48243	154.57331	861.98349	419.79359	203.44608	848.33900	393.87291	366.01345	882.71202	65.31837	249.26155	884.98642	387.57618	375.45879	416.42956	209.90532	424.38133	457.18143	120.57410	327.30492	407.38464	111.30856	348.47603	455.70232	232.42069	322.97600	474.95636	351.24947	252.48480	423.80825	262.47044	387.01748	173.27299	101.43067	390.20756	165.73671	172.78711	462.93575	163.92921	129.52249	305.98024	168.44822	298.00587	354.88132	170.98818	348.56010	377.15172	176.48687	266.41941	-749.75174	896.63795	-609.22565 
104	45.217	-770.20584	1072.33459	-414.51443	-773.27286	1066.00540	-206.46040	-955.62637	1126.32523	-171.57194	-957.06306	1129.20975	-416.26720	-726.77292	1416.10001	-272.76638	-816.10641	1505.31219	-291.93277	-642.68982	1585.03387	-144.36607	-797.97844	1618.97003	-197.99114	-693.17604	1623.73077	-302.61204	-781.37321	1440.86807	-110.34916	-550.36419	1280.61081	-55.40119	-569.22424	1213.03307	-17.47384	-569.82708	1188.20679	-77.11343	-344.32747	1187.37137	-32.16130	-340.46524	1234.18800	-35.97671	-343.34221	1233.89099	-79.29426	-796.73096	1448.91708	-474.99634	-869.99619	1141.96007	-606.94099	-856.10390	1121.45485	-536.82423	-794.77646	1149.50638	-597.57763	-710.68993	917.25746	-564.39159	-716.85081	910.64972	-610.37636	-975.73532	922.83272	-131.41490	-853.07617	902.99881	-483.07629	-897.16118	426.11565	-109.60501	-985.44365	449.84444	-112.99784	-907.38388	423.33977	-207.94760	-816.46355	437.31621	-462.63424	-918.08090	462.75192	-495.62832	-868.81638	419.28268	-386.75552	-920.11276	190.11889	-77.35516	-901.44867	177.85120	-139.25036	-981.35750	174.18489	-117.30313	-852.23686	172.17232	-502.50973	-932.08549	173.06366	-484.79389	-873.09731	175.46206	-431.94954	211.98643	1036.16150	303.53458	231.36044	1049.42055	148.70885	391.86813	1058.76343	152.17280	333.91453	1052.52480	327.11441	243.06496	1380.14374	245.25126	380.79620	1415.16129	246.46078	219.54134	1601.67099	208.95844	379.59061	1553.12103	166.93020	338.11646	1565.73395	324.60491	291.31247	1389.79614	88.62185	59.42390	1290.13306	9.96773	73.68585	1226.72203	6.68355	41.39279	1260.27405	58.97264	-159.69381	1203.52219	-81.86701	-161.05793	1185.62279	-39.96411	-166.73702	1244.04846	-74.69526	274.02882	1362.58209	403.18245	277.65045	1060.58533	452.62867	321.71017	1049.41711	433.11924	255.99840	1058.76137	402.83855	194.87141	841.63620	437.00401	155.55262	861.72318	420.36415	204.35368	848.13087	394.38480	366.70280	882.96440	65.71252	250.88078	884.76906	388.60477	376.24676	416.49357	210.23888	425.00645	457.18788	120.67898	327.77458	407.46284	111.57906	347.47440	455.88169	231.53042	323.13725	474.78676	351.09566	252.26105	423.83793	262.29885	387.14958	173.33752	101.54937	390.44716	165.76458	172.90714	463.12931	163.89894	129.47879	305.95398	168.42213	297.95584	354.86984	170.97507	348.44666	377.05784	176.39742	266.11578	-761.98380	899.41872	-606.76838 
